<svg xmlns="http://www.w3.org/2000/svg" fill="none" stroke="currentColor" stroke-linecap="round" stroke-linejoin="round" stroke-width="1.65" viewBox="0 0 24 24">
  <path d="M11.25 12.45C8.7 7.65 6.25 4.15 4.35 4.75 2.56 5.31 3.13 9.18 5.02 11.1c1.51 1.54 3.86 1.67 6.23 1.35Z" />
  <path d="M12.75 12.45c2.55-4.8 5-8.3 6.9-7.7 1.79.56 1.22 4.43-.67 6.35-1.51 1.54-3.86 1.67-6.23 1.35Z" />
  <path d="M11.2 12.55c-3.15.73-5.1 2.24-4.34 4.19.9 2.28 3.7 2.13 4.98-2.62M12.8 12.55c3.15.73 5.1 2.24 4.34 4.19-.9 2.28-3.7 2.13-4.98-2.62" />
</svg>
