<svg xmlns="http://www.w3.org/2000/svg" fill="none" stroke="currentColor" stroke-linecap="round" stroke-linejoin="round" stroke-width="1.65" viewBox="0 0 24 24">
  <path d="M9.2 5.5c-3.3 0-6 2.15-6 4.82 0 1.43.78 2.74 2.02 3.63l-.38 2.02c-.05.27.23.5.48.39l2.22-1.03c.53.13 1.08.19 1.66.19 3.31 0 6-2.15 6-4.81S12.51 5.5 9.2 5.5Z" fill="currentColor" stroke="none" />
  <path d="M14.2 9.15c3.34.02 6 2.13 6 4.73 0 1.35-.69 2.56-1.8 3.43l.3 1.66c.06.29-.25.51-.51.38l-1.78-.9c-.62.18-1.3.27-2.01.27-2.64 0-4.88-1.35-5.68-3.23.2.02.41.03.63.03 3.83 0 6.94-2.41 6.94-5.37 0-.32-.03-.63-.09-.93-.62-.07-1.28-.07-2-.07Z" fill="currentColor" opacity="0.62" stroke="none" />
</svg>
